# xmcd CD database file
#
# Track frame offsets:
#	182
#	13272
#	27365
#	44662
#	58672
#	75340
#	85530
#	98040
#	121792
#	134065
#	146647
#	160617
#	187077
#	196765
#	209842
#	226860
#	238557
#	255002
#	269787
#	293450
#	305745
#	314555
#
# Disc length: 4400 seconds
#
# Revision: 1
# Processed by: cddbd v1.5.2PL0 Copyright (c) Steve Scherf et al.
# Submitted via: CDex 1.79
#
DISCID=36112e16
DTITLE=Commander Cody and His Lost Planet Airmen - The Very Best Of (...plus)
DYEAR=1991
DGENRE=Country
TTITLE0=Back To Tennessee
TTITLE1=Wine Do Yer Stuff
TTITLE2=Seeds And Stems (Again)
TTITLE3=Daddy's Gonna Treat You Right
TTITLE4=Family Bible
TTITLE5=Lost In The Ozone
TTITLE6=Hot Rod Lincoln
TTITLE7=Beat Me Daddy Eight To The Bar
TTITLE8=Truck Stop Rock
TTITLE9=Truck Drivin' Man
TTITLE10=It Should've Been Me
TTITLE11=Watch My .38
TTITLE12=Everybody's Doin' It
TTITLE13=Rock That Boogie
TTITLE14=Smoke! Smoke! Smoke! (That Cigarette)
TTITLE15=Honey Suckle Honey
TTITLE16=Sunset On The Sage (live)
TTITLE17=Cryin' Time (live)
TTITLE18=Mama Hated Diesels
TTITLE19=Country Casanova
TTITLE20=My Window Faces The South
TTITLE21=Too Much Fun
EXTD=YEAR: 1991
EXTT0=
EXTT1=
EXTT2=
EXTT3=
EXTT4=
EXTT5=
EXTT6=
EXTT7=
EXTT8=
EXTT9=
EXTT10=
EXTT11=
EXTT12=
EXTT13=
EXTT14=
EXTT15=
EXTT16=
EXTT17=
EXTT18=
EXTT19=
EXTT20=
EXTT21=
PLAYORDER=
